<svg xmlns="http://www.w3.org/2000/svg" width="14.969" height="30.19" viewBox="0 0 14.969 30.19">
  <defs>
    <style>
      .cls-1 {
        fill: #2c3233;
        fill-rule: evenodd;
      }
    </style>
  </defs>
  <path id="Composite_Path" data-name="Composite Path" class="cls-1" d="M800.018,2322.26a7.861,7.861,0,0,0-6.648-7.52v-0.27a2.256,2.256,0,0,0-1.2-1.92l-3.517-1.72a0.97,0.97,0,0,1-.433-0.7v-1.34a0.236,0.236,0,0,1,.225-0.23h5.487v0.48a1.832,1.832,0,0,0,1.832,1.83h1.407a1.833,1.833,0,0,0,1.831-1.83v-1.41a1.833,1.833,0,0,0-1.831-1.83h-1.407a1.829,1.829,0,0,0-1.774,1.4h-5.545a1.589,1.589,0,0,0-1.589,1.59v1.34a2.249,2.249,0,0,0,1.195,1.92l3.517,1.73a0.977,0.977,0,0,1,.434.69v0.25a7.824,7.824,0,0,0-6.936,7.54h-0.017v10.99a2.742,2.742,0,0,0,2.738,2.74H797.3a2.742,2.742,0,0,0,2.736-2.74v-10.99h-0.017Zm-4.718-14.63a0.472,0.472,0,0,1,.468-0.46h1.407a0.473,0.473,0,0,1,.468.46v1.41a0.482,0.482,0,0,1-.468.47h-1.407a0.48,0.48,0,0,1-.468-0.47v-1.41Zm-2,12.85a0.478,0.478,0,0,1,.465.47v1.41a0.469,0.469,0,0,1-.465.46h-1.409a0.469,0.469,0,0,1-.466-0.46v-1.41a0.478,0.478,0,0,1,.466-0.47H793.3Zm5.374,3.14v9.63a1.4,1.4,0,0,1-1.372,1.38h-9.508a1.4,1.4,0,0,1-1.373-1.38v-9.63h0.007v-0.68c0-.11-0.009-0.15-0.007-0.15a6.516,6.516,0,0,1,5.588-6.7v3.03h-0.118a1.83,1.83,0,0,0-1.83,1.83v1.41a1.837,1.837,0,0,0,1.83,1.83H793.3a1.838,1.838,0,0,0,1.829-1.83v-1.41a1.838,1.838,0,0,0-1.756-1.83v-2.99a6.544,6.544,0,0,1,5.3,6.66h0a1.273,1.273,0,0,0-.007.15v0.68h0.006Z" transform="translate(-785.062 -2305.81)"/>
</svg>
