<svg xmlns="http://www.w3.org/2000/svg" width="28.75" height="25.37" viewBox="0 0 28.75 25.37">
  <defs>
    <style>
      .cls-1 {
        fill: #2c3233;
        fill-rule: evenodd;
      }
    </style>
  </defs>
  <path id="Composite_Path" data-name="Composite Path" class="cls-1" d="M792.373,2231.38a0.745,0.745,0,0,0-.06-0.06h0l0.232-.22-0.234.22c-3.846-3.85-7.275-7.19-9.764-10.04h0c-2.475-2.85-4.084-5.14-4.121-7.25h0a1.341,1.341,0,0,1,0-.16h0a7.452,7.452,0,0,1,7.459-7.42h0a7.443,7.443,0,0,1,6.746,4.3h0l0.166,0.36,0.006-.01,0.162-.35a7.452,7.452,0,0,1,6.752-4.3h0a7.446,7.446,0,0,1,7.457,7.42h0c0,0.06,0,.11,0,0.16h0c-0.038,2.11-1.65,4.4-4.123,7.26h0c-2.487,2.83-5.907,6.17-9.749,10.01h0a0.146,0.146,0,0,0-.027.03h0l-0.433.47-0.477-.42h0Zm-12.645-17.48,0,0.04v0.02s0,0.03,0,.07h0c-0.038,1.36,1.349,3.63,3.8,6.4h0c2.348,2.68,5.61,5.88,9.282,9.54h0c3.676-3.67,6.931-6.86,9.275-9.54h0c2.451-2.76,3.84-5.03,3.8-6.4h0c0-.03,0-0.07,0-0.13h0a6.168,6.168,0,0,0-6.158-6.16h0a6.168,6.168,0,0,0-5.577,3.56h0l-0.161.35-0.093.2-0.021.03a1.252,1.252,0,0,1-1.064.59h0a1.282,1.282,0,0,1-1.119-.68h0a1.353,1.353,0,0,1-.063-0.13h0l-0.166-.36a6.147,6.147,0,0,0-5.566-3.56h0a6.169,6.169,0,0,0-6.163,6.16h0Zm13.11-2.7a0.035,0.035,0,0,0-.008-0.02h0l0.008,0.02h0Z" transform="translate(-778.438 -2206.44)"/>
</svg>
