<svg xmlns="http://www.w3.org/2000/svg" width="29.531" height="27.5" viewBox="0 0 29.531 27.5">
  <defs>
    <style>
      .cls-1 {
        fill: #2c3233;
        fill-rule: evenodd;
      }
    </style>
  </defs>
  <path id="Composite_Path" data-name="Composite Path" class="cls-1" d="M802.164,2464.41a3.425,3.425,0,0,0-3.176-3.61h-5.957v-2.66a1.968,1.968,0,0,0-1.957-1.96h-7.367a1.968,1.968,0,0,0-1.959,1.96v2.66h-5.956a3.422,3.422,0,0,0-3.175,3.61v3.46a0.4,0.4,0,0,0,0,.06,0.473,0.473,0,0,0,0,.07,1.94,1.94,0,0,0,.054.45,3.348,3.348,0,0,0,1.383,1.86v9.01a4.37,4.37,0,0,0,4.359,4.36h17.954a4.372,4.372,0,0,0,4.361-4.36v-9.01a3.345,3.345,0,0,0,1.379-1.86,1.836,1.836,0,0,0,.055-0.45c0-.03,0-0.05,0-0.07s0-.04,0-0.06Zm-19.185-6.27a0.741,0.741,0,0,1,.728-0.73h7.367a0.743,0.743,0,0,1,.729.73v2.66h-8.826Zm16.516,12.91v8.27a3.149,3.149,0,0,1-3.128,3.13H778.413a3.151,3.151,0,0,1-3.129-3.13v-8.27c0.042,0.02.1,0.04,0.138,0.06,0.238,0.11.484,0.22,0.744,0.32a27.752,27.752,0,0,0,7.556,1.58v1.31a1.547,1.547,0,0,0,1.538,1.54h4.258a1.548,1.548,0,0,0,1.539-1.54v-1.31c1.326-.12,2.576-0.29,3.732-0.51a21.618,21.618,0,0,0,3.824-1.07h0c0.263-.1.508-0.21,0.75-0.33C799.405,2471.08,799.453,2471.07,799.5,2471.05Zm-14.543.81v-0.57a0.321,0.321,0,0,1,.308-0.31h4.258a0.32,0.32,0,0,1,.308.31v0.57h0v1.23h0v1.23a0.311,0.311,0,0,1-.308.3H785.26a0.312,0.312,0,0,1-.308-0.3v-1.23h0v-1.23h0Zm14.036-9.83a2.223,2.223,0,0,1,1.944,2.38v3.44a0.518,0.518,0,0,0,0,.08,0.678,0.678,0,0,0,0,.09,1.441,1.441,0,0,1-.024.17,2.85,2.85,0,0,1-1.539,1.53,1.776,1.776,0,0,1-.212.11c-0.069.04-.141,0.08-0.217,0.12s-0.184.08-.28,0.13c-0.159.07-.322,0.14-0.5,0.21a22.555,22.555,0,0,1-4.994,1.23c-0.673.1-1.379,0.18-2.109,0.25v-0.48a1.542,1.542,0,0,0-1.539-1.54H785.26a1.541,1.541,0,0,0-1.538,1.54v0.48c-0.593-.05-1.167-0.12-1.724-0.19a24,24,0,0,1-5.379-1.29c-0.18-.07-0.348-0.14-0.51-0.22-0.089-.04-0.173-0.08-0.254-0.12s-0.168-.08-0.248-0.12-0.129-.07-0.191-0.1a2.869,2.869,0,0,1-1.545-1.54,1.372,1.372,0,0,1-.024-0.17l0.006-.06v-0.07c0-.02,0-0.05-0.006-0.06v-3.42a2.22,2.22,0,0,1,1.944-2.38h23.2Z" transform="translate(-772.625 -2456.19)"/>
</svg>
