<svg xmlns="http://www.w3.org/2000/svg" width="26" height="26" viewBox="0 0 26 26">
  <defs>
    <style>
      .cls-1 {
        fill: #2c3233;
        fill-rule: evenodd;
      }
    </style>
  </defs>
  <path id="Composite_Path" data-name="Composite Path" class="cls-1" d="M798.232,2562.38l2.189,2.19a0.685,0.685,0,0,1,0,.96h0l-13.933,13.93,0.918,0.92,13.934-13.93a2,2,0,0,0,.576-1.4,1.955,1.955,0,0,0-.577-1.39l-5.3-5.3a1.974,1.974,0,0,0-2.8,0l-13.929,13.93,0.918,0.92,13.931-13.93a0.672,0.672,0,0,1,.957,0l2.19,2.19L784.1,2574.68l0.919,0.92Zm-19.727,13.48a1.4,1.4,0,0,0-1.009-.48,1.045,1.045,0,0,0-.844.43,1.6,1.6,0,0,0-.283.83l-0.45,5.25h0a1.492,1.492,0,0,0-.008.17,1.724,1.724,0,0,0,.5,1.23,1.748,1.748,0,0,0,1.226.49h0.158l5.268-.45a1.566,1.566,0,0,0,.828-0.29,1.037,1.037,0,0,0,.433-0.84,1.462,1.462,0,0,0-.481-1.01Z" transform="translate(-775.906 -2557.78)"/>
</svg>
