<svg xmlns="http://www.w3.org/2000/svg" width="26.19" height="26.18" viewBox="0 0 26.19 26.18">
  <defs>
    <style>
      .cls-1 {
        fill: #fff;
        fill-rule: evenodd;
      }
    </style>
  </defs>
  <path id="Dribble" class="cls-1" d="M1154.96,4672.86a12.962,12.962,0,0,0-1.97-4.69,13.441,13.441,0,0,0-1.6-1.93,11.876,11.876,0,0,0-1.94-1.6,12.279,12.279,0,0,0-2.22-1.21,13.244,13.244,0,0,0-2.46-.77,13.817,13.817,0,0,0-2.64-.26,13.66,13.66,0,0,0-2.64.26,13.244,13.244,0,0,0-2.46.77,12.035,12.035,0,0,0-2.23,1.21,12.785,12.785,0,0,0-1.94,1.6,14.065,14.065,0,0,0-1.59,1.93,12.654,12.654,0,0,0-1.21,2.23,14.04,14.04,0,0,0-.77,2.46,13,13,0,0,0,.77,7.73,12.654,12.654,0,0,0,1.21,2.23,14.154,14.154,0,0,0,1.59,1.94,13.337,13.337,0,0,0,1.94,1.59,12.7,12.7,0,0,0,2.23,1.22,13.214,13.214,0,0,0,2.46.76,12.917,12.917,0,0,0,2.64.26,13.057,13.057,0,0,0,2.64-.26,13.214,13.214,0,0,0,2.46-.76,12.981,12.981,0,0,0,2.22-1.22,12.349,12.349,0,0,0,1.94-1.59,13.524,13.524,0,0,0,1.6-1.94,13.34,13.34,0,0,0,1.21-2.23,12.986,12.986,0,0,0,.76-2.46A13.482,13.482,0,0,0,1154.96,4672.86Zm-1.65,2.52a25.945,25.945,0,0,0-7.79-.36c-0.08-.19-0.16-0.39-0.24-0.58-0.24-.54-0.49-1.09-0.74-1.62a14.472,14.472,0,0,0,6.23-4.43A11.219,11.219,0,0,1,1153.31,4675.38Zm-3.79-8.28c-0.03.05-1.63,2.47-5.85,4.05a56.1,56.1,0,0,0-4.18-6.52,10.968,10.968,0,0,1,2.64-.32A11.2,11.2,0,0,1,1149.52,4667.1Zm-10.07-2.46h0Zm-2.09.74a71.967,71.967,0,0,1,4.15,6.44,41.594,41.594,0,0,1-10.33,1.37A11.217,11.217,0,0,1,1137.36,4665.38Zm-6.42,10.12c0-.12.01-0.24,0.01-0.36a40.778,40.778,0,0,0,11.48-1.59c0.32,0.63.63,1.27,0.91,1.9-0.15.04-.29,0.09-0.44,0.13a17.677,17.677,0,0,0-9.1,7.39h0.01A11.145,11.145,0,0,1,1130.94,4675.5Zm11.19,11.18a11.16,11.16,0,0,1-7.13-2.56l0.25,0.2s2.15-4.68,8.78-6.99a0.254,0.254,0,0,1,.07-0.02,45.3,45.3,0,0,1,2.39,8.49A11.1,11.1,0,0,1,1142.13,4686.68Zm6.25-1.91a49.273,49.273,0,0,0-2.18-7.99,16.43,16.43,0,0,1,6.97.49A11.176,11.176,0,0,1,1148.38,4684.77Z" transform="translate(-1129.03 -4662.41)"/>
</svg>
