<svg xmlns="http://www.w3.org/2000/svg" width="26.38" height="23.68" viewBox="0 0 26.38 23.68">
  <defs>
    <style>
      .cls-1 {
        fill: #fff;
        fill-rule: evenodd;
      }
    </style>
  </defs>
  <path id="Google" class="cls-1" d="M1227.65,4672.27h-3.98v-3.98a0.555,0.555,0,0,0-.55-0.55h-1.14a0.555,0.555,0,0,0-.55.55v3.98h-3.98a0.555,0.555,0,0,0-.55.55v1.14a0.555,0.555,0,0,0,.55.55h3.98v3.98a0.555,0.555,0,0,0,.55.55h1.14a0.555,0.555,0,0,0,.55-0.55v-3.98h3.98a0.555,0.555,0,0,0,.55-0.55v-1.14A0.555,0.555,0,0,0,1227.65,4672.27Zm-13.38,3.49a4.643,4.643,0,0,1-1.61-1.73c0-.49.04-0.72,1.13-1.57a5.209,5.209,0,0,0,2.19-4.09,5.4,5.4,0,0,0-1.15-3.49h0.56a0.639,0.639,0,0,0,.33-0.1l1.56-1.14a0.527,0.527,0,0,0,.2-0.61,0.546,0.546,0,0,0-.52-0.39h-7a7.2,7.2,0,0,0-2.31.4c-2.55.88-4.34,3.06-4.34,5.29a5.62,5.62,0,0,0,5.73,5.63,2.744,2.744,0,0,0-.1.74,2.833,2.833,0,0,0,.38,1.4h-0.09c-3.12,0-5.94,1.53-7.01,3.81a4.14,4.14,0,0,0-.42,1.78,3.343,3.343,0,0,0,.44,1.65,6.18,6.18,0,0,0,4.07,2.63,12.775,12.775,0,0,0,3.21.39,10.189,10.189,0,0,0,2.86-.39c2.78-.81,4.57-2.85,4.57-5.21A5.425,5.425,0,0,0,1214.27,4675.76Zm-7.34-7.52a3.62,3.62,0,0,1,.67-2.86,1.835,1.835,0,0,1,1.41-.64h0.06c1.55,0.04,3.03,1.77,3.3,3.84a3.769,3.769,0,0,1-.69,2.92,1.823,1.823,0,0,1-1.43.65h-0.02C1208.71,4672.11,1207.2,4670.31,1206.93,4668.24Zm2.58,15.9c-2.29,0-4.08-1.41-4.08-3.2,0-1.64,2.09-3.09,4.47-3.09h0.07a5.341,5.341,0,0,1,1.5.23c0.16,0.11.32,0.22,0.47,0.33,1.1,0.75,1.83,1.24,2.04,2.04a2.436,2.436,0,0,1,.07.59C1214.05,4683.1,1212.52,4684.14,1209.51,4684.14Z" transform="translate(-1201.81 -4662.66)"/>
</svg>
