<svg xmlns="http://www.w3.org/2000/svg" width="26.13" height="21.18" viewBox="0 0 26.13 21.18">
  <defs>
    <style>
      .cls-1 {
        fill: #fff;
        fill-rule: evenodd;
      }
    </style>
  </defs>
  <path id="Twitter" class="cls-1" d="M1084.15,4668.16a10.877,10.877,0,0,1-3.08.84,5.349,5.349,0,0,0,2.36-2.96,10.946,10.946,0,0,1-3.4,1.3,5.362,5.362,0,0,0-9.27,3.66,5.431,5.431,0,0,0,.14,1.22,15.208,15.208,0,0,1-11.04-5.59,5.3,5.3,0,0,0-.72,2.69,5.358,5.358,0,0,0,2.38,4.46,5.3,5.3,0,0,1-2.43-.68v0.07a5.355,5.355,0,0,0,4.3,5.25,5.053,5.053,0,0,1-1.41.19,4.807,4.807,0,0,1-1.01-.1,5.375,5.375,0,0,0,5,3.73,10.721,10.721,0,0,1-7.93,2.21,15.228,15.228,0,0,0,23.45-12.83c0-.23,0-0.46-0.02-0.69A11.023,11.023,0,0,0,1084.15,4668.16Z" transform="translate(-1058.03 -4665.66)"/>
</svg>
